<?xml version="1.0" encoding="UTF-8"?>
<!DOCTYPE svg PUBLIC "-//W3C//DTD SVG 1.1//EN" "http://www.w3.org/Graphics/SVG/1.1/DTD/svg11.dtd">
<svg xmlns="http://www.w3.org/2000/svg" version="1.1" width="5101px" height="1245px" style="shape-rendering:geometricPrecision; text-rendering:geometricPrecision; image-rendering:optimizeQuality; fill-rule:evenodd; clip-rule:evenodd" xmlns:xlink="http://www.w3.org/1999/xlink">
<g><path style="opacity:1" fill="#fefefe" d="M -0.5,-0.5 C 184.5,-0.5 369.5,-0.5 554.5,-0.5C 489.975,6.03347 446.142,39.7001 423,100.5C 406.879,161.86 422.045,214.027 468.5,257C 514.27,292.282 564.27,299.615 618.5,279C 648.007,266.339 670.84,246.172 687,218.5C 687.718,217.549 688.551,217.383 689.5,218C 745.249,252.959 801.083,287.792 857,322.5C 838.857,371.641 843.857,418.307 872,462.5C 894.782,494.149 925.282,514.149 963.5,522.5C 963.5,587.833 963.5,653.167 963.5,718.5C 912.044,729.785 876.211,759.785 856,808.5C 836.341,869.358 848.841,922.525 893.5,968C 940.569,1007.48 992.903,1016.14 1050.5,994C 1098.99,970.891 1127.49,932.725 1136,879.5C 1141.5,816.997 1118,768.83 1065.5,735C 1051.46,726.822 1036.46,721.322 1020.5,718.5C 1020.5,653.167 1020.5,587.833 1020.5,522.5C 1087.79,505.272 1126.63,462.272 1137,393.5C 1140.04,341.772 1121.88,299.272 1082.5,266C 1045.79,238.331 1004.79,228.997 959.5,238C 932.789,244.183 909.789,256.85 890.5,276C 889.833,276.667 889.167,276.667 888.5,276C 828.5,238.667 768.5,201.333 708.5,164C 706.993,162.527 706.326,160.693 706.5,158.5C 709.568,97.7965 685.568,51.2965 634.5,19C 614.151,7.66859 592.484,1.16859 569.5,-0.5C 2079.83,-0.5 3590.17,-0.5 5100.5,-0.5C 5100.5,288.167 5100.5,576.833 5100.5,865.5C 5092.32,865.174 5084.32,865.508 5076.5,866.5C 5065.11,885.607 5053.94,904.94 5043,924.5C 5031.71,905.415 5020.54,886.249 5009.5,867C 5001.5,866.333 4993.5,866.333 4985.5,867C 5000.79,893.085 5015.96,919.252 5031,945.5C 5031.5,964.164 5031.67,982.83 5031.5,1001.5C 5038.83,1001.5 5046.17,1001.5 5053.5,1001.5C 5053.33,983.164 5053.5,964.83 5054,946.5C 5069.18,920.139 5084.35,893.806 5099.5,867.5C 5099.83,867.5 5100.17,867.5 5100.5,867.5C 5100.5,993.167 5100.5,1118.83 5100.5,1244.5C 3590.17,1244.5 2079.83,1244.5 569.5,1244.5C 627.595,1238.88 669.428,1209.88 695,1157.5C 716.188,1103.66 709.521,1053.66 675,1007.5C 652.669,980.372 624.169,963.372 589.5,956.5C 589.5,891.833 589.5,827.167 589.5,762.5C 648.143,749.026 685.977,713.36 703,655.5C 715.203,596.794 699.036,547.627 654.5,508C 608.888,473.722 559.221,466.388 505.5,486C 455.143,509.369 425.643,548.536 417,603.5C 413.137,664.271 436.304,711.437 486.5,745C 501.107,753.702 516.774,759.535 533.5,762.5C 533.5,827.167 533.5,891.833 533.5,956.5C 497.43,964.284 467.93,982.617 445,1011.5C 391.419,977.624 337.585,944.124 283.5,911C 282.919,910.107 282.585,909.107 282.5,908C 301.515,841.384 284.182,786.384 230.5,743C 213.328,730.662 194.328,722.496 173.5,718.5C 173.5,653.167 173.5,587.833 173.5,522.5C 240.848,505.316 279.682,462.316 290,393.5C 292.809,336.184 270.975,291.017 224.5,258C 180.794,231.936 135.128,227.936 87.5,246C 37.2746,270.049 7.94129,309.549 -0.5,364.5C -0.5,242.833 -0.5,121.167 -0.5,-0.5 Z"/></g>
<g><path style="opacity:1" fill="#ff2402" d="M 554.5,-0.5 C 559.5,-0.5 564.5,-0.5 569.5,-0.5C 592.484,1.16859 614.151,7.66859 634.5,19C 685.568,51.2965 709.568,97.7965 706.5,158.5C 706.326,160.693 706.993,162.527 708.5,164C 768.5,201.333 828.5,238.667 888.5,276C 889.167,276.667 889.833,276.667 890.5,276C 909.789,256.85 932.789,244.183 959.5,238C 1004.79,228.997 1045.79,238.331 1082.5,266C 1121.88,299.272 1140.04,341.772 1137,393.5C 1126.63,462.272 1087.79,505.272 1020.5,522.5C 1020.5,587.833 1020.5,653.167 1020.5,718.5C 1036.46,721.322 1051.46,726.822 1065.5,735C 1118,768.83 1141.5,816.997 1136,879.5C 1127.49,932.725 1098.99,970.891 1050.5,994C 992.903,1016.14 940.569,1007.48 893.5,968C 848.841,922.525 836.341,869.358 856,808.5C 876.211,759.785 912.044,729.785 963.5,718.5C 963.5,653.167 963.5,587.833 963.5,522.5C 925.282,514.149 894.782,494.149 872,462.5C 843.857,418.307 838.857,371.641 857,322.5C 801.083,287.792 745.249,252.959 689.5,218C 688.551,217.383 687.718,217.549 687,218.5C 670.84,246.172 648.007,266.339 618.5,279C 564.27,299.615 514.27,292.282 468.5,257C 422.045,214.027 406.879,161.86 423,100.5C 446.142,39.7001 489.975,6.03347 554.5,-0.5 Z"/></g>
<g><path style="opacity:1" fill="#888a8c" d="M 3076.5,197.5 C 3070.83,197.5 3065.17,197.5 3059.5,197.5C 3059.5,199.5 3059.5,201.5 3059.5,203.5C 3058.53,201.393 3058.2,199.059 3058.5,196.5C 3064.69,196.177 3070.69,196.51 3076.5,197.5 Z"/></g>
<g><path style="opacity:1" fill="#16181a" d="M 3076.5,197.5 C 3076.76,207.424 3081.76,212.758 3091.5,213.5C 3101.79,213.208 3107.13,207.875 3107.5,197.5C 3113.5,197.5 3119.5,197.5 3125.5,197.5C 3124.73,214.228 3116.4,225.061 3100.5,230C 3078.86,233.195 3065.19,224.361 3059.5,203.5C 3059.5,201.5 3059.5,199.5 3059.5,197.5C 3065.17,197.5 3070.83,197.5 3076.5,197.5 Z"/></g>
<g><path style="opacity:1" fill="#ff2402" d="M 569.5,1244.5 C 564.5,1244.5 559.5,1244.5 554.5,1244.5C 495.823,1239 453.656,1209.67 428,1156.5C 415.654,1126.31 413.154,1095.31 420.5,1063.5C 365.411,1027.78 309.745,992.778 253.5,958.5C 206.165,1004.8 151.165,1016.97 88.5,995C 34.8004,969.775 5.13373,927.609 -0.5,868.5C -0.5,860.833 -0.5,853.167 -0.5,845.5C 9.38838,784.891 43.0551,743.725 100.5,722C 105.708,720.198 111.041,719.031 116.5,718.5C 116.5,653.167 116.5,587.833 116.5,522.5C 49.1268,505.131 10.1268,462.131 -0.5,393.5C -0.5,383.833 -0.5,374.167 -0.5,364.5C 7.94129,309.549 37.2746,270.049 87.5,246C 135.128,227.936 180.794,231.936 224.5,258C 270.975,291.017 292.809,336.184 290,393.5C 279.682,462.316 240.848,505.316 173.5,522.5C 173.5,587.833 173.5,653.167 173.5,718.5C 194.328,722.496 213.328,730.662 230.5,743C 284.182,786.384 301.515,841.384 282.5,908C 282.585,909.107 282.919,910.107 283.5,911C 337.585,944.124 391.419,977.624 445,1011.5C 467.93,982.617 497.43,964.284 533.5,956.5C 533.5,891.833 533.5,827.167 533.5,762.5C 516.774,759.535 501.107,753.702 486.5,745C 436.304,711.437 413.137,664.271 417,603.5C 425.643,548.536 455.143,509.369 505.5,486C 559.221,466.388 608.888,473.722 654.5,508C 699.036,547.627 715.203,596.794 703,655.5C 685.977,713.36 648.143,749.026 589.5,762.5C 589.5,827.167 589.5,891.833 589.5,956.5C 624.169,963.372 652.669,980.372 675,1007.5C 709.521,1053.66 716.188,1103.66 695,1157.5C 669.428,1209.88 627.595,1238.88 569.5,1244.5 Z"/></g>
<g><path style="opacity:1" fill="#16171a" d="M 1466.5,243.5 C 1491.96,242.143 1513.13,250.81 1530,269.5C 1531.18,271.344 1532.35,273.177 1533.5,275C 1528.68,279.472 1523.52,283.638 1518,287.5C 1502.27,266.369 1481.77,259.869 1456.5,268C 1430.54,282.861 1422.04,304.694 1431,333.5C 1443.28,358.389 1463.12,367.889 1490.5,362C 1502.2,358.068 1511.37,350.901 1518,340.5C 1523.29,344.555 1528.46,348.722 1533.5,353C 1526.62,365.213 1516.62,373.879 1503.5,379C 1467.25,391.138 1437.75,381.971 1415,351.5C 1397.74,318.564 1401.91,288.731 1427.5,262C 1438.76,252.034 1451.76,245.867 1466.5,243.5 Z"/></g>
<g><path style="opacity:1" fill="#141518" d="M 1734.5,244.5 C 1736.83,244.5 1739.17,244.5 1741.5,244.5C 1741.5,290.167 1741.5,335.833 1741.5,381.5C 1734.5,381.5 1727.5,381.5 1720.5,381.5C 1720.67,350.498 1720.5,319.498 1720,288.5C 1692.54,320.297 1664.71,351.797 1636.5,383C 1633.85,383.497 1631.19,383.664 1628.5,383.5C 1628.5,337.833 1628.5,292.167 1628.5,246.5C 1635.5,246.5 1642.5,246.5 1649.5,246.5C 1649.17,277.174 1649.5,307.841 1650.5,338.5C 1651.11,338.376 1651.44,338.043 1651.5,337.5C 1678.82,306.177 1706.49,275.177 1734.5,244.5 Z"/></g>
<g><path style="opacity:1" fill="#343639" d="M 1734.5,244.5 C 1736.95,243.527 1739.61,243.194 1742.5,243.5C 1742.83,289.67 1742.5,335.67 1741.5,381.5C 1741.5,335.833 1741.5,290.167 1741.5,244.5C 1739.17,244.5 1736.83,244.5 1734.5,244.5 Z"/></g>
<g><path style="opacity:1" fill="#141518" d="M 2039.5,383.5 C 2039.5,337.833 2039.5,292.167 2039.5,246.5C 2046.5,246.5 2053.5,246.5 2060.5,246.5C 2060.17,277.574 2060.5,307.907 2061.5,337.5C 2089.63,306.528 2117.63,275.361 2145.5,244C 2147.81,243.503 2150.14,243.337 2152.5,243.5C 2152.5,289.5 2152.5,335.5 2152.5,381.5C 2145.5,381.5 2138.5,381.5 2131.5,381.5C 2131.67,350.498 2131.5,319.498 2131,288.5C 2102.81,319.718 2074.98,351.218 2047.5,383C 2044.85,383.497 2042.19,383.664 2039.5,383.5 Z"/></g>
<g><path style="opacity:1" fill="#16171a" d="M 2473.5,243.5 C 2498.34,242.232 2519.18,250.566 2536,268.5C 2537.7,270.699 2539.2,273.032 2540.5,275.5C 2535.45,279.885 2530.12,283.885 2524.5,287.5C 2507.51,264.673 2485.84,258.84 2459.5,270C 2436.01,285.812 2428.84,307.312 2438,334.5C 2449.09,357.297 2467.26,366.797 2492.5,363C 2498.25,362.124 2503.59,360.124 2508.5,357C 2514.37,352.131 2519.87,346.964 2525,341.5C 2529.99,345.152 2534.99,348.819 2540,352.5C 2536.09,361.092 2529.92,367.925 2521.5,373C 2485.05,392.317 2452.88,386.817 2425,356.5C 2411.96,337.226 2408.3,316.226 2414,293.5C 2424.32,265.339 2444.15,248.673 2473.5,243.5 Z"/></g>
<g><path style="opacity:1" fill="#141518" d="M 2925.5,381.5 C 2925.83,350.493 2925.5,319.493 2924.5,288.5C 2923.89,288.624 2923.56,288.957 2923.5,289.5C 2895.82,320.874 2868.16,352.207 2840.5,383.5C 2838.17,383.5 2835.83,383.5 2833.5,383.5C 2833.5,337.833 2833.5,292.167 2833.5,246.5C 2840.5,246.5 2847.5,246.5 2854.5,246.5C 2854.33,277.168 2854.5,307.835 2855,338.5C 2883.04,307.464 2910.71,276.13 2938,244.5C 2940.72,243.556 2943.55,243.223 2946.5,243.5C 2946.5,289.5 2946.5,335.5 2946.5,381.5C 2939.5,381.5 2932.5,381.5 2925.5,381.5 Z"/></g>
<g><path style="opacity:1" fill="#141518" d="M 3143.5,244.5 C 3145.83,244.5 3148.17,244.5 3150.5,244.5C 3150.5,290.167 3150.5,335.833 3150.5,381.5C 3143.5,381.5 3136.5,381.5 3129.5,381.5C 3129.67,350.498 3129.5,319.498 3129,288.5C 3128.28,289.044 3127.78,289.711 3127.5,290.5C 3100.37,321.462 3073.04,352.295 3045.5,383C 3042.85,383.497 3040.19,383.664 3037.5,383.5C 3037.5,337.833 3037.5,292.167 3037.5,246.5C 3044.5,246.5 3051.5,246.5 3058.5,246.5C 3058.17,277.174 3058.5,307.841 3059.5,338.5C 3060.11,338.376 3060.44,338.043 3060.5,337.5C 3087.82,306.177 3115.49,275.177 3143.5,244.5 Z"/></g>
<g><path style="opacity:1" fill="#444649" d="M 3143.5,244.5 C 3145.95,243.527 3148.61,243.194 3151.5,243.5C 3151.83,289.67 3151.5,335.67 3150.5,381.5C 3150.5,335.833 3150.5,290.167 3150.5,244.5C 3148.17,244.5 3145.83,244.5 3143.5,244.5 Z"/></g>
<g><path style="opacity:1" fill="#131517" d="M 3408.5,244.5 C 3415.5,244.5 3422.5,244.5 3429.5,244.5C 3429.5,497.5 3429.5,750.5 3429.5,1003.5C 3422.5,1003.5 3415.5,1003.5 3408.5,1003.5C 3408.5,750.5 3408.5,497.5 3408.5,244.5 Z"/></g>
<g><path style="opacity:1" fill="#25272a" d="M 3408.5,244.5 C 3415.65,243.508 3422.98,243.175 3430.5,243.5C 3430.5,497.167 3430.5,750.833 3430.5,1004.5C 3422.98,1004.82 3415.65,1004.49 3408.5,1003.5C 3415.5,1003.5 3422.5,1003.5 3429.5,1003.5C 3429.5,750.5 3429.5,497.5 3429.5,244.5C 3422.5,244.5 3415.5,244.5 3408.5,244.5 Z"/></g>
<g><path style="opacity:1" fill="#16171a" d="M 3713.5,244.5 C 3735.78,241.811 3753.11,249.645 3765.5,268C 3761.05,272.497 3756.21,276.663 3751,280.5C 3741.39,266.182 3728.22,261.349 3711.5,266C 3703.35,270.141 3700.51,276.641 3703,285.5C 3703.69,288.196 3705.19,290.363 3707.5,292C 3722.59,299.81 3737.59,307.81 3752.5,316C 3765.52,325.552 3770.68,338.385 3768,354.5C 3762.36,371.136 3750.86,380.969 3733.5,384C 3706.89,387.856 3686.56,378.523 3672.5,356C 3676.95,351.503 3681.79,347.337 3687,343.5C 3693.53,353.345 3702.37,360.179 3713.5,364C 3722.99,365.584 3731.99,364.25 3740.5,360C 3748.76,350.534 3748.43,341.534 3739.5,333C 3724.55,325.858 3709.88,318.192 3695.5,310C 3682.83,300.678 3678,288.178 3681,272.5C 3686.77,257.222 3697.61,247.889 3713.5,244.5 Z"/></g>
<g><path style="opacity:1" fill="#151619" d="M 4552.5,244.5 C 4557.64,243.198 4561.14,244.865 4563,249.5C 4582.04,293.74 4601.2,337.907 4620.5,382C 4612.48,382.832 4604.48,382.665 4596.5,381.5C 4593.31,374.582 4590.31,367.582 4587.5,360.5C 4567.17,359.334 4546.84,359.167 4526.5,360C 4523.17,367.333 4519.83,374.667 4516.5,382C 4508.81,382.831 4501.15,382.665 4493.5,381.5C 4513.45,335.928 4533.12,290.262 4552.5,244.5 Z"/></g>
<g><path style="opacity:1" fill="#151619" d="M 4755.5,337.5 C 4755.56,338.043 4755.89,338.376 4756.5,338.5C 4757.5,308.174 4757.83,277.841 4757.5,247.5C 4764.17,247.5 4770.83,247.5 4777.5,247.5C 4777.5,293.167 4777.5,338.833 4777.5,384.5C 4772.46,385.569 4768.62,383.903 4766,379.5C 4740.71,349.871 4715.04,320.537 4689,291.5C 4688.5,321.832 4688.33,352.165 4688.5,382.5C 4681.17,382.5 4673.83,382.5 4666.5,382.5C 4666.5,336.5 4666.5,290.5 4666.5,244.5C 4669.19,244.336 4671.85,244.503 4674.5,245C 4702.08,275.409 4729.08,306.242 4755.5,337.5 Z"/></g>
<g><path style="opacity:1" fill="#76787a" d="M 1855.5,246.5 C 1879.99,245.502 1904.66,245.169 1929.5,245.5C 1929.82,252.354 1929.49,259.021 1928.5,265.5C 1928.5,259.167 1928.5,252.833 1928.5,246.5C 1904.17,246.5 1879.83,246.5 1855.5,246.5 Z"/></g>
<g><path style="opacity:1" fill="#9d9fa1" d="M 2294.5,245.5 C 2280.5,245.5 2266.5,245.5 2252.5,245.5C 2252.5,290.5 2252.5,335.5 2252.5,380.5C 2251.5,335.336 2251.17,290.003 2251.5,244.5C 2266.01,244.171 2280.34,244.504 2294.5,245.5 Z"/></g>
<g><path style="opacity:1" fill="#16171a" d="M 2294.5,245.5 C 2317.21,246.757 2331.04,258.423 2336,280.5C 2337.48,305.682 2325.98,321.182 2301.5,327C 2292.55,328.307 2283.55,328.807 2274.5,328.5C 2274.5,345.833 2274.5,363.167 2274.5,380.5C 2267.17,380.5 2259.83,380.5 2252.5,380.5C 2252.5,335.5 2252.5,290.5 2252.5,245.5C 2266.5,245.5 2280.5,245.5 2294.5,245.5 Z"/></g>
<g><path style="opacity:1" fill="#67696c" d="M 2712.5,246.5 C 2721.01,245.179 2729.68,245.179 2738.5,246.5C 2738.38,247.107 2738.04,247.44 2737.5,247.5C 2729.35,246.507 2721.02,246.174 2712.5,246.5 Z"/></g>
<g><path style="opacity:1" fill="#45474a" d="M 1628.5,246.5 C 1635.65,245.508 1642.98,245.175 1650.5,245.5C 1650.17,276.338 1650.5,307.005 1651.5,337.5C 1651.44,338.043 1651.11,338.376 1650.5,338.5C 1649.5,307.841 1649.17,277.174 1649.5,246.5C 1642.5,246.5 1635.5,246.5 1628.5,246.5 Z"/></g>
<g><path style="opacity:1" fill="#151619" d="M 1855.5,246.5 C 1879.83,246.5 1904.17,246.5 1928.5,246.5C 1928.5,252.833 1928.5,259.167 1928.5,265.5C 1911.5,265.5 1894.5,265.5 1877.5,265.5C 1877.5,277.5 1877.5,289.5 1877.5,301.5C 1887.87,301.319 1898.2,301.819 1908.5,303C 1932.44,310.369 1942.61,326.535 1939,351.5C 1934.18,367.984 1923.35,377.818 1906.5,381C 1889.5,381.5 1872.5,381.667 1855.5,381.5C 1855.5,336.5 1855.5,291.5 1855.5,246.5 Z"/></g>
<g><path style="opacity:1" fill="#7a7c7f" d="M 2061.5,337.5 C 2060.5,307.907 2060.17,277.574 2060.5,246.5C 2053.5,246.5 2046.5,246.5 2039.5,246.5C 2039.5,292.167 2039.5,337.833 2039.5,383.5C 2038.5,337.67 2038.17,291.67 2038.5,245.5C 2046.17,245.5 2053.83,245.5 2061.5,245.5C 2061.5,276.167 2061.5,306.833 2061.5,337.5 Z"/></g>
<g><path style="opacity:1" fill="#151619" d="M 2628.5,246.5 C 2635.5,246.5 2642.5,246.5 2649.5,246.5C 2649.17,264.674 2649.5,282.674 2650.5,300.5C 2654.85,300.666 2659.18,300.499 2663.5,300C 2679.97,282.188 2696.3,264.355 2712.5,246.5C 2721.02,246.174 2729.35,246.507 2737.5,247.5C 2719.15,267.851 2701.15,288.518 2683.5,309.5C 2703.65,333.48 2723.98,357.314 2744.5,381C 2735.5,381.667 2726.5,381.667 2717.5,381C 2699.63,360.307 2681.63,339.807 2663.5,319.5C 2659.03,318.514 2654.36,318.181 2649.5,318.5C 2649.5,339.5 2649.5,360.5 2649.5,381.5C 2642.5,381.5 2635.5,381.5 2628.5,381.5C 2628.5,336.5 2628.5,291.5 2628.5,246.5 Z"/></g>
<g><path style="opacity:1" fill="#525458" d="M 2628.5,246.5 C 2635.65,245.508 2642.98,245.175 2650.5,245.5C 2650.5,263.833 2650.5,282.167 2650.5,300.5C 2649.5,282.674 2649.17,264.674 2649.5,246.5C 2642.5,246.5 2635.5,246.5 2628.5,246.5 Z"/></g>
<g><path style="opacity:1" fill="#434548" d="M 2854.5,246.5 C 2847.5,246.5 2840.5,246.5 2833.5,246.5C 2833.5,292.167 2833.5,337.833 2833.5,383.5C 2835.83,383.5 2838.17,383.5 2840.5,383.5C 2838.05,384.473 2835.39,384.806 2832.5,384.5C 2832.5,338.167 2832.5,291.833 2832.5,245.5C 2840.02,245.175 2847.35,245.508 2854.5,246.5 Z"/></g>
<g><path style="opacity:1" fill="#545658" d="M 3037.5,246.5 C 3044.65,245.508 3051.98,245.175 3059.5,245.5C 3059.17,276.338 3059.5,307.005 3060.5,337.5C 3060.44,338.043 3060.11,338.376 3059.5,338.5C 3058.5,307.841 3058.17,277.174 3058.5,246.5C 3051.5,246.5 3044.5,246.5 3037.5,246.5 Z"/></g>
<g><path style="opacity:1" fill="#3c3f41" d="M 4095.5,247.5 C 4119.66,246.502 4143.99,246.169 4168.5,246.5C 4168.5,253.167 4168.5,259.833 4168.5,266.5C 4151.5,266.5 4134.5,266.5 4117.5,266.5C 4133.99,265.503 4150.66,265.17 4167.5,265.5C 4167.5,259.5 4167.5,253.5 4167.5,247.5C 4143.5,247.5 4119.5,247.5 4095.5,247.5 Z"/></g>
<g><path style="opacity:1" fill="#141517" d="M 3836.5,247.5 C 3843.5,247.5 3850.5,247.5 3857.5,247.5C 3857.5,292.5 3857.5,337.5 3857.5,382.5C 3850.5,382.5 3843.5,382.5 3836.5,382.5C 3836.5,337.5 3836.5,292.5 3836.5,247.5 Z"/></g>
<g><path style="opacity:1" fill="#3a3b3e" d="M 3836.5,247.5 C 3843.65,246.508 3850.98,246.175 3858.5,246.5C 3858.83,292.003 3858.5,337.336 3857.5,382.5C 3857.5,337.5 3857.5,292.5 3857.5,247.5C 3850.5,247.5 3843.5,247.5 3836.5,247.5 Z"/></g>
<g><path style="opacity:1" fill="#67696c" d="M 3972.5,247.5 C 3960.5,247.5 3948.5,247.5 3936.5,247.5C 3936.5,292.5 3936.5,337.5 3936.5,382.5C 3935.5,337.336 3935.17,292.003 3935.5,246.5C 3948.01,246.171 3960.34,246.505 3972.5,247.5 Z"/></g>
<g><path style="opacity:1" fill="#151619" d="M 3972.5,247.5 C 3998.11,251.043 4009.61,265.709 4007,291.5C 4005.11,298.05 4001.61,303.55 3996.5,308C 4020.83,319.512 4027.67,337.678 4017,362.5C 4010.17,373.343 4000.34,379.843 3987.5,382C 3970.5,382.5 3953.5,382.667 3936.5,382.5C 3936.5,337.5 3936.5,292.5 3936.5,247.5C 3948.5,247.5 3960.5,247.5 3972.5,247.5 Z"/></g>
<g><path style="opacity:1" fill="#141518" d="M 4095.5,247.5 C 4119.5,247.5 4143.5,247.5 4167.5,247.5C 4167.5,253.5 4167.5,259.5 4167.5,265.5C 4150.66,265.17 4133.99,265.503 4117.5,266.5C 4117.5,277.833 4117.5,289.167 4117.5,300.5C 4133.99,301.497 4150.66,301.83 4167.5,301.5C 4167.5,307.5 4167.5,313.5 4167.5,319.5C 4150.5,319.5 4133.5,319.5 4116.5,319.5C 4116.17,334.01 4116.5,348.343 4117.5,362.5C 4133.99,363.497 4150.66,363.83 4167.5,363.5C 4167.5,369.833 4167.5,376.167 4167.5,382.5C 4143.5,382.5 4119.5,382.5 4095.5,382.5C 4095.5,337.5 4095.5,292.5 4095.5,247.5 Z"/></g>
<g><path style="opacity:1" fill="#3b3d40" d="M 4305.5,247.5 C 4287.5,247.5 4269.5,247.5 4251.5,247.5C 4251.5,292.5 4251.5,337.5 4251.5,382.5C 4250.5,337.336 4250.17,292.003 4250.5,246.5C 4269.01,246.17 4287.34,246.503 4305.5,247.5 Z"/></g>
<g><path style="opacity:1" fill="#151619" d="M 4305.5,247.5 C 4330.62,249.454 4344.29,262.954 4346.5,288C 4346.14,306.668 4337.47,319.668 4320.5,327C 4334.03,345.026 4347.36,363.193 4360.5,381.5C 4352.19,382.665 4343.85,382.832 4335.5,382C 4323.36,365.026 4311.03,348.193 4298.5,331.5C 4289.86,330.502 4281.19,330.169 4272.5,330.5C 4272.5,347.833 4272.5,365.167 4272.5,382.5C 4265.5,382.5 4258.5,382.5 4251.5,382.5C 4251.5,337.5 4251.5,292.5 4251.5,247.5C 4269.5,247.5 4287.5,247.5 4305.5,247.5 Z"/></g>
<g><path style="opacity:1" fill="#424447" d="M 4441.5,247.5 C 4434.5,247.5 4427.5,247.5 4420.5,247.5C 4420.5,292.5 4420.5,337.5 4420.5,382.5C 4419.5,337.336 4419.17,292.003 4419.5,246.5C 4427.02,246.175 4434.35,246.508 4441.5,247.5 Z"/></g>
<g><path style="opacity:1" fill="#141518" d="M 4441.5,247.5 C 4441.5,292.5 4441.5,337.5 4441.5,382.5C 4434.5,382.5 4427.5,382.5 4420.5,382.5C 4420.5,337.5 4420.5,292.5 4420.5,247.5C 4427.5,247.5 4434.5,247.5 4441.5,247.5 Z"/></g>
<g><path style="opacity:1" fill="#212326" d="M 4777.5,384.5 C 4777.5,338.833 4777.5,293.167 4777.5,247.5C 4770.83,247.5 4764.17,247.5 4757.5,247.5C 4757.83,277.841 4757.5,308.174 4756.5,338.5C 4755.89,338.376 4755.56,338.043 4755.5,337.5C 4756.5,307.338 4756.83,277.005 4756.5,246.5C 4763.83,246.5 4771.17,246.5 4778.5,246.5C 4778.83,292.67 4778.5,338.67 4777.5,384.5 Z"/></g>
<g><path style="opacity:1" fill="#fdfdfd" d="M 2274.5,264.5 C 2281.51,264.334 2288.51,264.5 2295.5,265C 2306.87,267.37 2312.87,274.37 2313.5,286C 2313.44,297.72 2307.77,305.054 2296.5,308C 2289.17,308.5 2281.84,308.666 2274.5,308.5C 2274.5,293.833 2274.5,279.167 2274.5,264.5 Z"/></g>
<g><path style="opacity:1" fill="#fdfdfd" d="M 3957.5,266.5 C 3964.37,265.965 3971.04,266.799 3977.5,269C 3985.57,275 3987.74,282.833 3984,292.5C 3980.95,298.282 3976.11,301.449 3969.5,302C 3965.51,302.499 3961.51,302.666 3957.5,302.5C 3957.5,290.5 3957.5,278.5 3957.5,266.5 Z"/></g>
<g><path style="opacity:1" fill="#fdfdfd" d="M 4272.5,266.5 C 4285.23,266.08 4297.89,266.58 4310.5,268C 4319.45,271.407 4323.79,277.907 4323.5,287.5C 4323.57,299.925 4317.57,307.425 4305.5,310C 4294.51,310.5 4283.51,310.667 4272.5,310.5C 4272.5,295.833 4272.5,281.167 4272.5,266.5 Z"/></g>
<g><path style="opacity:1" fill="#f7f7f7" d="M 4556.5,285.5 C 4564.8,303.708 4572.13,322.374 4578.5,341.5C 4563.82,341.833 4549.15,341.499 4534.5,340.5C 4541.84,322.138 4549.17,303.805 4556.5,285.5 Z"/></g>
<g><path style="opacity:1" fill="#444649" d="M 2923.5,289.5 C 2923.56,288.957 2923.89,288.624 2924.5,288.5C 2925.5,319.493 2925.83,350.493 2925.5,381.5C 2924.83,350.833 2924.17,320.167 2923.5,289.5 Z"/></g>
<g><path style="opacity:1" fill="#d1d1d3" d="M 3129.5,381.5 C 3128.83,351.167 3128.17,320.833 3127.5,290.5C 3127.78,289.711 3128.28,289.044 3129,288.5C 3129.5,319.498 3129.67,350.498 3129.5,381.5 Z"/></g>
<g><path style="opacity:1" fill="#707275" d="M 4117.5,300.5 C 4134.5,300.5 4151.5,300.5 4168.5,300.5C 4168.82,307.022 4168.49,313.355 4167.5,319.5C 4167.5,313.5 4167.5,307.5 4167.5,301.5C 4150.66,301.83 4133.99,301.497 4117.5,300.5 Z"/></g>
<g><path style="opacity:1" fill="#535458" d="M 2663.5,319.5 C 2659.17,319.5 2654.83,319.5 2650.5,319.5C 2650.83,340.34 2650.5,361.007 2649.5,381.5C 2649.5,360.5 2649.5,339.5 2649.5,318.5C 2654.36,318.181 2659.03,318.514 2663.5,319.5 Z"/></g>
<g><path style="opacity:1" fill="#fdfdfd" d="M 1877.5,320.5 C 1886.24,320.124 1894.9,320.624 1903.5,322C 1917.5,328.779 1921,339.279 1914,353.5C 1910.47,358.512 1905.63,361.179 1899.5,361.5C 1892.17,361.5 1884.83,361.5 1877.5,361.5C 1877.5,347.833 1877.5,334.167 1877.5,320.5 Z"/></g>
<g><path style="opacity:1" fill="#56585b" d="M 4167.5,319.5 C 4151.01,320.497 4134.34,320.83 4117.5,320.5C 4117.5,334.5 4117.5,348.5 4117.5,362.5C 4116.5,348.343 4116.17,334.01 4116.5,319.5C 4133.5,319.5 4150.5,319.5 4167.5,319.5 Z"/></g>
<g><path style="opacity:1" fill="#fcfcfc" d="M 3957.5,321.5 C 3965.51,321.334 3973.51,321.5 3981.5,322C 3992.65,324.313 3998.65,331.146 3999.5,342.5C 3998.68,353.827 3992.68,360.661 3981.5,363C 3973.51,363.5 3965.51,363.666 3957.5,363.5C 3957.5,349.5 3957.5,335.5 3957.5,321.5 Z"/></g>
<g><path style="opacity:1" fill="#b1b2b3" d="M 1877.5,320.5 C 1877.5,334.167 1877.5,347.833 1877.5,361.5C 1884.83,361.5 1892.17,361.5 1899.5,361.5C 1892.02,362.492 1884.35,362.825 1876.5,362.5C 1876.17,348.323 1876.5,334.323 1877.5,320.5 Z"/></g>
<g><path style="opacity:1" fill="#56585b" d="M 4117.5,362.5 C 4134.5,362.5 4151.5,362.5 4168.5,362.5C 4168.82,369.354 4168.49,376.021 4167.5,382.5C 4167.5,376.167 4167.5,369.833 4167.5,363.5C 4150.66,363.83 4133.99,363.497 4117.5,362.5 Z"/></g>
<g><path style="opacity:1" fill="#fffefe" d="M -0.5,393.5 C 10.1268,462.131 49.1268,505.131 116.5,522.5C 116.5,587.833 116.5,653.167 116.5,718.5C 111.041,719.031 105.708,720.198 100.5,722C 43.0551,743.725 9.38838,784.891 -0.5,845.5C -0.5,694.833 -0.5,544.167 -0.5,393.5 Z"/></g>
<g><path style="opacity:1" fill="#16171a" d="M 3058.5,505.5 C 3064.5,505.5 3070.5,505.5 3076.5,505.5C 3077.51,517.841 3084.18,523.341 3096.5,522C 3104.05,519.069 3107.71,513.569 3107.5,505.5C 3113.5,505.5 3119.5,505.5 3125.5,505.5C 3125.11,520.462 3118.11,530.962 3104.5,537C 3084.49,543.232 3069.99,537.065 3061,518.5C 3059.84,514.218 3059.01,509.884 3058.5,505.5 Z"/></g>
<g><path style="opacity:1" fill="#5b5d60" d="M 1490.5,547.5 C 1490.5,547.833 1490.5,548.167 1490.5,548.5C 1483.5,548.5 1476.5,548.5 1469.5,548.5C 1469.82,554.026 1469.49,559.36 1468.5,564.5C 1468.5,558.833 1468.5,553.167 1468.5,547.5C 1475.83,547.5 1483.17,547.5 1490.5,547.5 Z"/></g>
<g><path style="opacity:1" fill="#151619" d="M 1490.5,548.5 C 1490.5,554.167 1490.5,559.833 1490.5,565.5C 1491.83,565.5 1493.17,565.5 1494.5,565.5C 1520.06,565.352 1538.89,576.352 1551,598.5C 1557.15,616.671 1555.82,634.338 1547,651.5C 1532.86,669.985 1514.03,678.985 1490.5,678.5C 1490.5,684.5 1490.5,690.5 1490.5,696.5C 1483.17,696.5 1475.83,696.5 1468.5,696.5C 1468.5,690.5 1468.5,684.5 1468.5,678.5C 1446.31,678.653 1428.15,670.32 1414,653.5C 1400.74,630.732 1401.4,608.399 1416,586.5C 1430.42,571.641 1447.92,564.308 1468.5,564.5C 1469.49,559.36 1469.82,554.026 1469.5,548.5C 1476.5,548.5 1483.5,548.5 1490.5,548.5 Z"/></g>
<g><path style="opacity:1" fill="#a1a1a4" d="M 1490.5,547.5 C 1491.49,552.975 1491.82,558.642 1491.5,564.5C 1492.79,564.263 1493.79,564.596 1494.5,565.5C 1493.17,565.5 1491.83,565.5 1490.5,565.5C 1490.5,559.833 1490.5,554.167 1490.5,548.5C 1490.5,548.167 1490.5,547.833 1490.5,547.5 Z"/></g>
<g><path style="opacity:1" fill="#141518" d="M 1693.5,552.5 C 1693.5,558.833 1693.5,565.167 1693.5,571.5C 1677.32,571.17 1661.32,571.504 1645.5,572.5C 1645.5,583.833 1645.5,595.167 1645.5,606.5C 1661.32,607.496 1677.32,607.83 1693.5,607.5C 1693.5,613.5 1693.5,619.5 1693.5,625.5C 1677.5,625.5 1661.5,625.5 1645.5,625.5C 1645.5,639.833 1645.5,654.167 1645.5,668.5C 1661.5,668.5 1677.5,668.5 1693.5,668.5C 1693.5,674.833 1693.5,681.167 1693.5,687.5C 1670.17,687.5 1646.83,687.5 1623.5,687.5C 1623.5,642.5 1623.5,597.5 1623.5,552.5C 1646.83,552.5 1670.17,552.5 1693.5,552.5 Z"/></g>
<g><path style="opacity:1" fill="#16171a" d="M 1790.5,552.5 C 1817.17,552.5 1843.83,552.5 1870.5,552.5C 1870.5,591.167 1870.5,629.833 1870.5,668.5C 1875.83,668.5 1881.17,668.5 1886.5,668.5C 1886.5,684.833 1886.5,701.167 1886.5,717.5C 1879.17,717.5 1871.83,717.5 1864.5,717.5C 1864.5,707.833 1864.5,698.167 1864.5,688.5C 1834.17,688.5 1803.83,688.5 1773.5,688.5C 1773.5,698.167 1773.5,707.833 1773.5,717.5C 1766.17,717.5 1758.83,717.5 1751.5,717.5C 1751.5,701.167 1751.5,684.833 1751.5,668.5C 1755.18,668.665 1758.85,668.499 1762.5,668C 1772.24,658.688 1779.08,647.522 1783,634.5C 1789.64,607.594 1792.14,580.261 1790.5,552.5 Z"/></g>
<g><path style="opacity:1" fill="#161719" d="M 2330.5,687.5 C 2323.58,689.463 2316.24,690.13 2308.5,689.5C 2305.34,682.349 2302.01,675.182 2298.5,668C 2278.16,667.167 2257.83,667.334 2237.5,668.5C 2234.31,675.418 2231.31,682.418 2228.5,689.5C 2220.86,690.497 2213.2,690.831 2205.5,690.5C 2224.47,644.393 2244.14,598.56 2264.5,553C 2267.43,552.223 2270.26,552.39 2273,553.5C 2292.45,598.072 2311.62,642.739 2330.5,687.5 Z"/></g>
<g><path style="opacity:1" fill="#151619" d="M 3143.5,552.5 C 3145.83,552.5 3148.17,552.5 3150.5,552.5C 3150.5,598.167 3150.5,643.833 3150.5,689.5C 3143.5,689.5 3136.5,689.5 3129.5,689.5C 3129.67,658.832 3129.5,628.165 3129,597.5C 3128.28,598.044 3127.78,598.711 3127.5,599.5C 3099.66,629.842 3072.33,660.676 3045.5,692C 3042.85,692.497 3040.19,692.664 3037.5,692.5C 3037.5,646.5 3037.5,600.5 3037.5,554.5C 3044.83,554.5 3052.17,554.5 3059.5,554.5C 3059.33,585.168 3059.5,615.835 3060,646.5C 3088.07,615.27 3115.9,583.937 3143.5,552.5 Z"/></g>
<g><path style="opacity:1" fill="#4a4c4f" d="M 3143.5,552.5 C 3145.95,551.527 3148.61,551.194 3151.5,551.5C 3151.5,597.833 3151.5,644.167 3151.5,690.5C 3144.17,690.5 3136.83,690.5 3129.5,690.5C 3129.5,690.167 3129.5,689.833 3129.5,689.5C 3136.5,689.5 3143.5,689.5 3150.5,689.5C 3150.5,643.833 3150.5,598.167 3150.5,552.5C 3148.17,552.5 3145.83,552.5 3143.5,552.5 Z"/></g>
<g><path style="opacity:1" fill="#16171a" d="M 2099.5,552.5 C 2113.17,552.333 2126.84,552.5 2140.5,553C 2170.85,557.011 2184.35,574.177 2181,604.5C 2175.46,622.036 2163.63,632.536 2145.5,636C 2137.51,636.5 2129.51,636.666 2121.5,636.5C 2121.5,653.833 2121.5,671.167 2121.5,688.5C 2114.17,688.5 2106.83,688.5 2099.5,688.5C 2099.5,643.167 2099.5,597.833 2099.5,552.5 Z"/></g>
<g><path style="opacity:1" fill="#161719" d="M 4461.5,690.5 C 4453.98,690.825 4446.65,690.492 4439.5,689.5C 4458.75,643.832 4478.42,598.332 4498.5,553C 4503.34,551.284 4506.51,552.784 4508,557.5C 4527.04,601.74 4546.2,645.907 4565.5,690C 4557.48,690.832 4549.48,690.665 4541.5,689.5C 4538.79,682.525 4535.79,675.692 4532.5,669C 4512.17,668.333 4491.83,668.333 4471.5,669C 4468.25,676.294 4464.91,683.461 4461.5,690.5 Z"/></g>
<g><path style="opacity:1" fill="#16171a" d="M 1954.5,554.5 C 1979.17,554.5 2003.83,554.5 2028.5,554.5C 2028.5,561.167 2028.5,567.833 2028.5,574.5C 2011.17,574.5 1993.83,574.5 1976.5,574.5C 1976.5,585.833 1976.5,597.167 1976.5,608.5C 1993.17,608.5 2009.83,608.5 2026.5,608.5C 2026.5,614.833 2026.5,621.167 2026.5,627.5C 2009.83,627.5 1993.17,627.5 1976.5,627.5C 1976.5,641.833 1976.5,656.167 1976.5,670.5C 1993.83,670.5 2011.17,670.5 2028.5,670.5C 2028.5,677.167 2028.5,683.833 2028.5,690.5C 2003.83,690.5 1979.17,690.5 1954.5,690.5C 1954.5,645.167 1954.5,599.833 1954.5,554.5 Z"/></g>
<g><path style="opacity:1" fill="#16171a" d="M 2849.5,554.5 C 2856.83,554.5 2864.17,554.5 2871.5,554.5C 2871.5,571.167 2871.5,587.833 2871.5,604.5C 2884.14,603.581 2896.47,605.081 2908.5,609C 2928.24,619.316 2936.07,635.483 2932,657.5C 2925.96,677.456 2912.46,688.289 2891.5,690C 2877.5,690.5 2863.5,690.667 2849.5,690.5C 2849.5,645.167 2849.5,599.833 2849.5,554.5 Z"/></g>
<g><path style="opacity:1" fill="#17181b" d="M 2949.5,554.5 C 2956.83,554.5 2964.17,554.5 2971.5,554.5C 2971.5,599.833 2971.5,645.167 2971.5,690.5C 2964.17,690.5 2956.83,690.5 2949.5,690.5C 2949.5,645.167 2949.5,599.833 2949.5,554.5 Z"/></g>
<g><path style="opacity:1" fill="#16171a" d="M 3769.5,574.5 C 3747.5,574.5 3725.5,574.5 3703.5,574.5C 3703.5,588.167 3703.5,601.833 3703.5,615.5C 3721.5,615.5 3739.5,615.5 3757.5,615.5C 3757.5,621.833 3757.5,628.167 3757.5,634.5C 3739.5,634.5 3721.5,634.5 3703.5,634.5C 3703.5,653.167 3703.5,671.833 3703.5,690.5C 3696.17,690.5 3688.83,690.5 3681.5,690.5C 3681.5,645.5 3681.5,600.5 3681.5,555.5C 3710.83,555.5 3740.17,555.5 3769.5,555.5C 3769.5,561.833 3769.5,568.167 3769.5,574.5 Z"/></g>
<g><path style="opacity:1" fill="#141518" d="M 3836.5,555.5 C 3860.17,555.5 3883.83,555.5 3907.5,555.5C 3907.5,561.833 3907.5,568.167 3907.5,574.5C 3891.17,574.5 3874.83,574.5 3858.5,574.5C 3858.5,586.167 3858.5,597.833 3858.5,609.5C 3874.83,609.5 3891.17,609.5 3907.5,609.5C 3907.5,615.833 3907.5,622.167 3907.5,628.5C 3891.17,628.5 3874.83,628.5 3858.5,628.5C 3858.5,642.833 3858.5,657.167 3858.5,671.5C 3874.83,671.5 3891.17,671.5 3907.5,671.5C 3907.5,677.833 3907.5,684.167 3907.5,690.5C 3883.83,690.5 3860.17,690.5 3836.5,690.5C 3836.5,645.5 3836.5,600.5 3836.5,555.5 Z"/></g>
<g><path style="opacity:1" fill="#626467" d="M 4024.5,555.5 C 4009.5,555.5 3994.5,555.5 3979.5,555.5C 3979.5,600.5 3979.5,645.5 3979.5,690.5C 3995.17,690.5 4010.83,690.5 4026.5,690.5C 4010.68,691.496 3994.68,691.83 3978.5,691.5C 3978.5,645.833 3978.5,600.167 3978.5,554.5C 3994.01,554.17 4009.34,554.504 4024.5,555.5 Z"/></g>
<g><path style="opacity:1" fill="#151619" d="M 4024.5,555.5 C 4055.28,555.49 4077.45,569.157 4091,596.5C 4101.44,627.57 4094.61,654.07 4070.5,676C 4057.34,685.332 4042.67,690.165 4026.5,690.5C 4010.83,690.5 3995.17,690.5 3979.5,690.5C 3979.5,645.5 3979.5,600.5 3979.5,555.5C 3994.5,555.5 4009.5,555.5 4024.5,555.5 Z"/></g>
<g><path style="opacity:1" fill="#141518" d="M 4157.5,555.5 C 4181.5,555.5 4205.5,555.5 4229.5,555.5C 4229.5,561.833 4229.5,568.167 4229.5,574.5C 4212.83,574.5 4196.17,574.5 4179.5,574.5C 4179.5,586.167 4179.5,597.833 4179.5,609.5C 4196.17,609.5 4212.83,609.5 4229.5,609.5C 4229.5,615.833 4229.5,622.167 4229.5,628.5C 4212.83,628.5 4196.17,628.5 4179.5,628.5C 4179.5,642.833 4179.5,657.167 4179.5,671.5C 4196.17,671.5 4212.83,671.5 4229.5,671.5C 4229.5,677.833 4229.5,684.167 4229.5,690.5C 4205.5,690.5 4181.5,690.5 4157.5,690.5C 4157.5,645.5 4157.5,600.5 4157.5,555.5 Z"/></g>
<g><path style="opacity:1" fill="#151619" d="M 4299.5,555.5 C 4319.5,555.333 4339.5,555.5 4359.5,556C 4385.1,561.595 4396.93,577.429 4395,603.5C 4392.39,618.772 4383.89,629.272 4369.5,635C 4382.83,653.333 4396.17,671.667 4409.5,690C 4401.17,690.667 4392.83,690.667 4384.5,690C 4371.83,673 4359.17,656 4346.5,639C 4338.17,638.5 4329.84,638.334 4321.5,638.5C 4321.5,655.833 4321.5,673.167 4321.5,690.5C 4314.17,690.5 4306.83,690.5 4299.5,690.5C 4299.5,645.5 4299.5,600.5 4299.5,555.5 Z"/></g>
<g><path style="opacity:1" fill="#141518" d="M 4634.5,555.5 C 4634.5,594.167 4634.5,632.833 4634.5,671.5C 4655.17,671.5 4675.83,671.5 4696.5,671.5C 4697.49,677.645 4697.82,683.978 4697.5,690.5C 4669.5,690.5 4641.5,690.5 4613.5,690.5C 4613.5,645.5 4613.5,600.5 4613.5,555.5C 4620.5,555.5 4627.5,555.5 4634.5,555.5 Z"/></g>
<g><path style="opacity:1" fill="#151619" d="M 2412.5,555.5 C 2431.33,556.497 2450.33,556.83 2469.5,556.5C 2469.5,601.167 2469.5,645.833 2469.5,690.5C 2462.5,690.5 2455.5,690.5 2448.5,690.5C 2448.5,652.167 2448.5,613.833 2448.5,575.5C 2435.17,575.5 2421.83,575.5 2408.5,575.5C 2408.79,597.745 2406.63,619.745 2402,641.5C 2398.41,657.531 2390.57,671.031 2378.5,682C 2370.68,687.442 2362.01,690.609 2352.5,691.5C 2352.33,684.825 2352.5,678.158 2353,671.5C 2364.48,668.028 2372.48,660.694 2377,649.5C 2382.37,633.958 2385.37,617.958 2386,601.5C 2386.94,586.179 2387.44,570.846 2387.5,555.5C 2395.83,555.5 2404.17,555.5 2412.5,555.5 Z"/></g>
<g><path style="opacity:1" fill="#16171a" d="M 2532.5,556.5 C 2539.83,556.5 2547.17,556.5 2554.5,556.5C 2554.5,573.167 2554.5,589.833 2554.5,606.5C 2566.9,605.388 2578.9,606.888 2590.5,611C 2613.55,624.129 2620.38,643.296 2611,668.5C 2601.91,683.636 2588.41,691.469 2570.5,692C 2557.84,692.5 2545.17,692.667 2532.5,692.5C 2532.5,647.167 2532.5,601.833 2532.5,556.5 Z"/></g>
<g><path style="opacity:1" fill="#828386" d="M 2672.5,556.5 C 2672.5,601.5 2672.5,646.5 2672.5,691.5C 2679.5,691.5 2686.5,691.5 2693.5,691.5C 2686.35,692.492 2679.02,692.825 2671.5,692.5C 2671.17,646.997 2671.5,601.664 2672.5,556.5 Z"/></g>
<g><path style="opacity:1" fill="#131517" d="M 2672.5,556.5 C 2679.5,556.5 2686.5,556.5 2693.5,556.5C 2693.5,574.5 2693.5,592.5 2693.5,610.5C 2716.5,610.5 2739.5,610.5 2762.5,610.5C 2762.5,592.5 2762.5,574.5 2762.5,556.5C 2769.5,556.5 2776.5,556.5 2783.5,556.5C 2783.5,601.5 2783.5,646.5 2783.5,691.5C 2776.5,691.5 2769.5,691.5 2762.5,691.5C 2762.5,670.833 2762.5,650.167 2762.5,629.5C 2739.5,629.5 2716.5,629.5 2693.5,629.5C 2693.5,650.167 2693.5,670.833 2693.5,691.5C 2686.5,691.5 2679.5,691.5 2672.5,691.5C 2672.5,646.5 2672.5,601.5 2672.5,556.5 Z"/></g>
<g><path style="opacity:1" fill="#585a5d" d="M 2412.5,555.5 C 2431.83,555.5 2451.17,555.5 2470.5,555.5C 2470.5,600.833 2470.5,646.167 2470.5,691.5C 2462.98,691.825 2455.65,691.492 2448.5,690.5C 2455.5,690.5 2462.5,690.5 2469.5,690.5C 2469.5,645.833 2469.5,601.167 2469.5,556.5C 2450.33,556.83 2431.33,556.497 2412.5,555.5 Z"/></g>
<g><path style="opacity:1" fill="#5e6063" d="M 1693.5,552.5 C 1694.49,558.979 1694.82,565.646 1694.5,572.5C 1678.17,572.5 1661.83,572.5 1645.5,572.5C 1661.32,571.504 1677.32,571.17 1693.5,571.5C 1693.5,565.167 1693.5,558.833 1693.5,552.5 Z"/></g>
<g><path style="opacity:1" fill="#fefefe" d="M 1811.5,572.5 C 1823.5,572.5 1835.5,572.5 1847.5,572.5C 1847.5,604.5 1847.5,636.5 1847.5,668.5C 1827.16,668.667 1806.83,668.5 1786.5,668C 1795.71,657.076 1801.87,644.576 1805,630.5C 1809.04,611.393 1811.2,592.06 1811.5,572.5 Z"/></g>
<g><path style="opacity:1" fill="#696a6d" d="M 1811.5,572.5 C 1823.66,571.505 1835.99,571.171 1848.5,571.5C 1848.83,604.004 1848.5,636.338 1847.5,668.5C 1847.5,636.5 1847.5,604.5 1847.5,572.5C 1835.5,572.5 1823.5,572.5 1811.5,572.5 Z"/></g>
<g><path style="opacity:1" fill="#fefefe" d="M 2121.5,572.5 C 2128.17,572.334 2134.84,572.5 2141.5,573C 2153.09,575.249 2158.75,582.249 2158.5,594C 2159.25,605.845 2153.92,613.178 2142.5,616C 2135.51,616.5 2128.51,616.666 2121.5,616.5C 2121.5,601.833 2121.5,587.167 2121.5,572.5 Z"/></g>
<g><path style="opacity:1" fill="#bcbdbf" d="M 4022.5,575.5 C 4015.5,575.5 4008.5,575.5 4001.5,575.5C 4001.5,607.167 4001.5,638.833 4001.5,670.5C 4008.5,670.5 4015.5,670.5 4022.5,670.5C 4015.35,671.492 4008.02,671.825 4000.5,671.5C 4000.5,639.167 4000.5,606.833 4000.5,574.5C 4008.02,574.175 4015.35,574.508 4022.5,575.5 Z"/></g>
<g><path style="opacity:1" fill="#fefefe" d="M 4022.5,575.5 C 4052.29,575.803 4068.96,590.637 4072.5,620C 4071.72,652.61 4055.06,669.444 4022.5,670.5C 4015.5,670.5 4008.5,670.5 4001.5,670.5C 4001.5,638.833 4001.5,607.167 4001.5,575.5C 4008.5,575.5 4015.5,575.5 4022.5,575.5 Z"/></g>
<g><path style="opacity:1" fill="#fbfbfb" d="M 4321.5,574.5 C 4332.51,574.333 4343.51,574.5 4354.5,575C 4369.61,578.706 4375.44,588.206 4372,603.5C 4368.62,613.119 4361.78,618.286 4351.5,619C 4341.51,619.5 4331.51,619.666 4321.5,619.5C 4321.5,604.5 4321.5,589.5 4321.5,574.5 Z"/></g>
<g><path style="opacity:1" fill="#fdfdfd" d="M 1468.5,584.5 C 1468.5,609.167 1468.5,633.833 1468.5,658.5C 1465.5,658.5 1462.5,658.5 1459.5,658.5C 1438.09,655.255 1427.09,642.755 1426.5,621C 1429.44,596.23 1443.44,584.064 1468.5,584.5 Z"/></g>
<g><path style="opacity:1" fill="#fdfdfd" d="M 1490.5,584.5 C 1515.14,583.989 1529.14,595.823 1532.5,620C 1531.02,646.27 1517.02,659.104 1490.5,658.5C 1490.5,633.833 1490.5,609.167 1490.5,584.5 Z"/></g>
<g><path style="opacity:1" fill="#3b3e40" d="M 1468.5,584.5 C 1469.5,609.328 1469.83,634.328 1469.5,659.5C 1465.96,659.813 1462.62,659.479 1459.5,658.5C 1462.5,658.5 1465.5,658.5 1468.5,658.5C 1468.5,633.833 1468.5,609.167 1468.5,584.5 Z"/></g>
<g><path style="opacity:1" fill="#fbfbfb" d="M 2267.5,593.5 C 2268.79,594.058 2269.62,595.058 2270,596.5C 2276.84,613.684 2283.67,630.85 2290.5,648C 2275.84,648.5 2261.17,648.667 2246.5,648.5C 2253.3,630.1 2260.3,611.767 2267.5,593.5 Z"/></g>
<g><path style="opacity:1" fill="#fbfbfb" d="M 4501.5,593.5 C 4509.44,611.795 4517.1,630.295 4524.5,649C 4509.5,649.667 4494.5,649.667 4479.5,649C 4487.13,630.612 4494.46,612.112 4501.5,593.5 Z"/></g>
<g><path style="opacity:1" fill="#d3d3d5" d="M 3129.5,689.5 C 3129.5,689.833 3129.5,690.167 3129.5,690.5C 3128.83,660.167 3128.17,629.833 3127.5,599.5C 3127.78,598.711 3128.28,598.044 3129,597.5C 3129.5,628.165 3129.67,658.832 3129.5,689.5 Z"/></g>
<g><path style="opacity:1" fill="#3c3f41" d="M 1645.5,606.5 C 1661.83,606.5 1678.17,606.5 1694.5,606.5C 1694.82,613.022 1694.49,619.355 1693.5,625.5C 1693.5,619.5 1693.5,613.5 1693.5,607.5C 1677.32,607.83 1661.32,607.496 1645.5,606.5 Z"/></g>
<g><path style="opacity:1" fill="#a3a4a6" d="M 3769.5,574.5 C 3748.01,575.497 3726.34,575.831 3704.5,575.5C 3704.5,588.5 3704.5,601.5 3704.5,614.5C 3722.34,614.17 3740.01,614.503 3757.5,615.5C 3739.5,615.5 3721.5,615.5 3703.5,615.5C 3703.5,601.833 3703.5,588.167 3703.5,574.5C 3725.5,574.5 3747.5,574.5 3769.5,574.5 Z"/></g>
<g><path style="opacity:1" fill="#fdfdfd" d="M 2871.5,624.5 C 2878.51,624.334 2885.51,624.5 2892.5,625C 2904.63,627.624 2910.63,635.124 2910.5,647.5C 2910.45,660.443 2904.12,668.276 2891.5,671C 2884.84,671.5 2878.17,671.666 2871.5,671.5C 2871.5,655.833 2871.5,640.167 2871.5,624.5 Z"/></g>
<g><path style="opacity:1" fill="#fcfcfc" d="M 2554.5,626.5 C 2561.17,626.334 2567.84,626.5 2574.5,627C 2586.39,629.551 2592.39,636.884 2592.5,649C 2592.5,662.002 2586.17,670.002 2573.5,673C 2567.18,673.5 2560.84,673.666 2554.5,673.5C 2554.5,657.833 2554.5,642.167 2554.5,626.5 Z"/></g>
<g><path style="opacity:1" fill="#808284" d="M 2783.5,691.5 C 2776.35,692.492 2769.02,692.825 2761.5,692.5C 2761.5,671.833 2761.5,651.167 2761.5,630.5C 2739.17,630.5 2716.83,630.5 2694.5,630.5C 2694.83,651.007 2694.5,671.34 2693.5,691.5C 2693.5,670.833 2693.5,650.167 2693.5,629.5C 2716.5,629.5 2739.5,629.5 2762.5,629.5C 2762.5,650.167 2762.5,670.833 2762.5,691.5C 2769.5,691.5 2776.5,691.5 2783.5,691.5 Z"/></g>
<g><path style="opacity:1" fill="#8a8c8e" d="M 3757.5,634.5 C 3740.01,635.497 3722.34,635.83 3704.5,635.5C 3704.83,654.008 3704.5,672.341 3703.5,690.5C 3703.5,671.833 3703.5,653.167 3703.5,634.5C 3721.5,634.5 3739.5,634.5 3757.5,634.5 Z"/></g>
<g><path style="opacity:1" fill="#a6a7a9" d="M 4634.5,555.5 C 4635.5,593.663 4635.83,631.996 4635.5,670.5C 4656.01,670.17 4676.34,670.503 4696.5,671.5C 4675.83,671.5 4655.17,671.5 4634.5,671.5C 4634.5,632.833 4634.5,594.167 4634.5,555.5 Z"/></g>
<g><path style="opacity:1" fill="#4b4d50" d="M 1693.5,668.5 C 1694.49,674.979 1694.82,681.646 1694.5,688.5C 1670.66,688.831 1646.99,688.498 1623.5,687.5C 1646.83,687.5 1670.17,687.5 1693.5,687.5C 1693.5,681.167 1693.5,674.833 1693.5,668.5 Z"/></g>
<g><path style="opacity:1" fill="#515356" d="M 2330.5,687.5 C 2331.4,688.209 2331.74,689.209 2331.5,690.5C 2323.65,690.825 2315.98,690.492 2308.5,689.5C 2316.24,690.13 2323.58,689.463 2330.5,687.5 Z"/></g>
<g><path style="opacity:1" fill="#8e9092" d="M 4439.5,689.5 C 4446.65,690.492 4453.98,690.825 4461.5,690.5C 4453.99,691.82 4446.32,691.82 4438.5,690.5C 4438.62,689.893 4438.96,689.56 4439.5,689.5 Z"/></g>
<g><path style="opacity:1" fill="#151618" d="M 2295.5,859.5 C 2310.84,859.333 2326.17,859.5 2341.5,860C 2372.28,868.388 2383.11,887.888 2374,918.5C 2367.42,931.545 2356.92,939.378 2342.5,942C 2333.84,942.5 2325.17,942.666 2316.5,942.5C 2316.5,959.833 2316.5,977.167 2316.5,994.5C 2309.5,994.5 2302.5,994.5 2295.5,994.5C 2295.5,949.5 2295.5,904.5 2295.5,859.5 Z"/></g>
<g><path style="opacity:1" fill="#16171a" d="M 2482.5,859.5 C 2509.04,857.329 2531.21,865.995 2549,885.5C 2550.17,887.333 2551.33,889.167 2552.5,891C 2547.76,895.448 2542.59,899.282 2537,902.5C 2532.57,898.066 2528.07,893.566 2523.5,889C 2507.98,879.739 2491.65,878.072 2474.5,884C 2448.43,899.367 2440.27,921.534 2450,950.5C 2465.72,978.483 2488.55,986.317 2518.5,974C 2525.64,969.355 2531.64,963.522 2536.5,956.5C 2541.83,960.5 2547.17,964.5 2552.5,968.5C 2541.73,985.394 2526.4,995.561 2506.5,999C 2467.43,1002.89 2440.6,986.725 2426,950.5C 2417.74,910.863 2431.57,882.03 2467.5,864C 2472.58,862.32 2477.58,860.82 2482.5,859.5 Z"/></g>
<g><path style="opacity:1" fill="#303235" d="M 2295.5,859.5 C 2295.5,904.5 2295.5,949.5 2295.5,994.5C 2302.5,994.5 2309.5,994.5 2316.5,994.5C 2309.35,995.492 2302.02,995.825 2294.5,995.5C 2294.17,949.997 2294.5,904.664 2295.5,859.5 Z"/></g>
<g><path style="opacity:1" fill="#141518" d="M 1882.5,998.5 C 1882.83,967.493 1882.5,936.493 1881.5,905.5C 1880.89,905.624 1880.56,905.957 1880.5,906.5C 1853.17,937.332 1826,968.332 1799,999.5C 1796.28,1000.44 1793.45,1000.78 1790.5,1000.5C 1790.5,954.833 1790.5,909.167 1790.5,863.5C 1797.5,863.5 1804.5,863.5 1811.5,863.5C 1811.33,894.168 1811.5,924.835 1812,955.5C 1840.19,924.282 1868.02,892.782 1895.5,861C 1898.15,860.503 1900.81,860.336 1903.5,860.5C 1903.5,906.5 1903.5,952.5 1903.5,998.5C 1896.5,998.5 1889.5,998.5 1882.5,998.5 Z"/></g>
<g><path style="opacity:1" fill="#161719" d="M 2706.5,998.5 C 2706.67,967.498 2706.5,936.498 2706,905.5C 2705.28,906.044 2704.78,906.711 2704.5,907.5C 2677.4,938.437 2650.07,969.27 2622.5,1000C 2619.85,1000.5 2617.19,1000.66 2614.5,1000.5C 2614.5,954.833 2614.5,909.167 2614.5,863.5C 2621.5,863.5 2628.5,863.5 2635.5,863.5C 2635.17,894.174 2635.5,924.841 2636.5,955.5C 2637.11,955.376 2637.44,955.043 2637.5,954.5C 2664.96,923.204 2692.63,892.038 2720.5,861C 2723.15,860.503 2725.81,860.336 2728.5,860.5C 2728.5,906.5 2728.5,952.5 2728.5,998.5C 2721.17,998.5 2713.83,998.5 2706.5,998.5 Z"/></g>
<g><path style="opacity:1" fill="#505255" d="M 1502.5,863.5 C 1510.65,862.507 1518.98,862.174 1527.5,862.5C 1527.74,863.791 1527.4,864.791 1526.5,865.5C 1518.9,863.533 1510.9,862.866 1502.5,863.5 Z"/></g>
<g><path style="opacity:1" fill="#16171a" d="M 1985.5,861.5 C 1999.54,861.158 2013.54,861.658 2027.5,863C 2052.94,870.377 2061.78,886.877 2054,912.5C 2051.92,916.579 2049.09,920.079 2045.5,923C 2068.69,933.228 2076.19,950.395 2068,974.5C 2060.34,988.422 2048.51,995.922 2032.5,997C 2016.84,997.5 2001.17,997.667 1985.5,997.5C 1985.5,952.167 1985.5,906.833 1985.5,861.5 Z"/></g>
<g><path style="opacity:1" fill="#333538" d="M 2162.5,881.5 C 2179.33,880.503 2196.33,880.17 2213.5,880.5C 2213.5,874.5 2213.5,868.5 2213.5,862.5C 2189.5,862.5 2165.5,862.5 2141.5,862.5C 2141.5,907.167 2141.5,951.833 2141.5,996.5C 2165.5,996.5 2189.5,996.5 2213.5,996.5C 2213.5,990.5 2213.5,984.5 2213.5,978.5C 2196.33,978.83 2179.33,978.497 2162.5,977.5C 2179.83,977.5 2197.17,977.5 2214.5,977.5C 2214.5,984.167 2214.5,990.833 2214.5,997.5C 2189.83,997.5 2165.17,997.5 2140.5,997.5C 2140.5,952.167 2140.5,906.833 2140.5,861.5C 2165.17,861.5 2189.83,861.5 2214.5,861.5C 2214.5,868.167 2214.5,874.833 2214.5,881.5C 2197.17,881.5 2179.83,881.5 2162.5,881.5 Z"/></g>
<g><path style="opacity:1" fill="#151619" d="M 2162.5,881.5 C 2162.5,892.833 2162.5,904.167 2162.5,915.5C 2179.5,915.5 2196.5,915.5 2213.5,915.5C 2213.5,922.167 2213.5,928.833 2213.5,935.5C 2196.5,935.5 2179.5,935.5 2162.5,935.5C 2162.5,949.5 2162.5,963.5 2162.5,977.5C 2179.33,978.497 2196.33,978.83 2213.5,978.5C 2213.5,984.5 2213.5,990.5 2213.5,996.5C 2189.5,996.5 2165.5,996.5 2141.5,996.5C 2141.5,951.833 2141.5,907.167 2141.5,862.5C 2165.5,862.5 2189.5,862.5 2213.5,862.5C 2213.5,868.5 2213.5,874.5 2213.5,880.5C 2196.33,880.17 2179.33,880.503 2162.5,881.5 Z"/></g>
<g><path style="opacity:1" fill="#525456" d="M 2789.5,863.5 C 2816.33,862.502 2843.33,862.169 2870.5,862.5C 2870.82,869.354 2870.49,876.021 2869.5,882.5C 2869.5,876.167 2869.5,869.833 2869.5,863.5C 2842.83,863.5 2816.17,863.5 2789.5,863.5 Z"/></g>
<g><path style="opacity:1" fill="#4e5052" d="M 3070.5,863.5 C 3097.33,862.502 3124.33,862.169 3151.5,862.5C 3151.82,869.354 3151.49,876.021 3150.5,882.5C 3150.5,876.167 3150.5,869.833 3150.5,863.5C 3123.83,863.5 3097.17,863.5 3070.5,863.5 Z"/></g>
<g><path style="opacity:1" fill="#16171a" d="M 4668.5,862.5 C 4690.38,860.113 4707.38,867.946 4719.5,886C 4715.6,890.736 4710.93,894.569 4705.5,897.5C 4700.12,890.96 4693.45,886.127 4685.5,883C 4677.44,881.586 4669.77,882.586 4662.5,886C 4654.87,893.685 4654.54,901.685 4661.5,910C 4676.14,917.652 4690.8,925.318 4705.5,933C 4723.2,945.981 4727.37,962.481 4718,982.5C 4704.97,999.407 4687.8,1005.91 4666.5,1002C 4648.7,998.614 4635.37,989.114 4626.5,973.5C 4631.18,969.658 4636.01,965.992 4641,962.5C 4644.77,966.267 4648.6,970.1 4652.5,974C 4665.71,983.733 4679.71,985.067 4694.5,978C 4700.99,971.02 4702.15,963.186 4698,954.5C 4695.5,952.667 4693,950.833 4690.5,949C 4675.9,942.701 4661.9,935.368 4648.5,927C 4632.8,912.883 4630.3,896.716 4641,878.5C 4648.38,869.926 4657.55,864.593 4668.5,862.5 Z"/></g>
<g><path style="opacity:1" fill="#16171a" d="M 1502.5,863.5 C 1510.9,862.866 1518.9,863.533 1526.5,865.5C 1511.77,900.184 1496.94,934.85 1482,969.5C 1473.91,990.593 1458.57,1000.93 1436,1000.5C 1430.81,1000.34 1425.65,1000.01 1420.5,999.5C 1420.5,993.167 1420.5,986.833 1420.5,980.5C 1429.65,981.046 1438.65,980.212 1447.5,978C 1453.35,975.483 1457.02,971.149 1458.5,965C 1443.25,930.999 1427.58,897.166 1411.5,863.5C 1419.83,862.167 1428.17,862.167 1436.5,863.5C 1448,889.167 1459.5,914.833 1471,940.5C 1481.61,914.845 1492.11,889.178 1502.5,863.5 Z"/></g>
<g><path style="opacity:1" fill="#151619" d="M 1684.5,863.5 C 1691.5,863.5 1698.5,863.5 1705.5,863.5C 1705.5,908.5 1705.5,953.5 1705.5,998.5C 1698.5,998.5 1691.5,998.5 1684.5,998.5C 1684.5,977.833 1684.5,957.167 1684.5,936.5C 1661.83,936.5 1639.17,936.5 1616.5,936.5C 1616.5,957.167 1616.5,977.833 1616.5,998.5C 1609.17,998.5 1601.83,998.5 1594.5,998.5C 1594.5,953.167 1594.5,907.833 1594.5,862.5C 1601.83,862.5 1609.17,862.5 1616.5,862.5C 1616.5,880.5 1616.5,898.5 1616.5,916.5C 1639.17,916.5 1661.83,916.5 1684.5,916.5C 1684.5,898.833 1684.5,881.167 1684.5,863.5 Z"/></g>
<g><path style="opacity:1" fill="#292b2e" d="M 1684.5,863.5 C 1691.65,862.508 1698.98,862.175 1706.5,862.5C 1706.83,908.003 1706.5,953.336 1705.5,998.5C 1705.5,953.5 1705.5,908.5 1705.5,863.5C 1698.5,863.5 1691.5,863.5 1684.5,863.5 Z"/></g>
<g><path style="opacity:1" fill="#393a3d" d="M 1811.5,863.5 C 1804.5,863.5 1797.5,863.5 1790.5,863.5C 1790.5,909.167 1790.5,954.833 1790.5,1000.5C 1789.5,954.67 1789.17,908.67 1789.5,862.5C 1797.02,862.175 1804.35,862.508 1811.5,863.5 Z"/></g>
<g><path style="opacity:1" fill="#7b7d7f" d="M 2637.5,954.5 C 2637.44,955.043 2637.11,955.376 2636.5,955.5C 2635.5,924.841 2635.17,894.174 2635.5,863.5C 2628.5,863.5 2621.5,863.5 2614.5,863.5C 2614.5,909.167 2614.5,954.833 2614.5,1000.5C 2613.5,954.67 2613.17,908.67 2613.5,862.5C 2621.17,862.5 2628.83,862.5 2636.5,862.5C 2636.17,893.338 2636.5,924.005 2637.5,954.5 Z"/></g>
<g><path style="opacity:1" fill="#151618" d="M 2789.5,863.5 C 2816.17,863.5 2842.83,863.5 2869.5,863.5C 2869.5,869.833 2869.5,876.167 2869.5,882.5C 2859.83,882.5 2850.17,882.5 2840.5,882.5C 2840.5,921.167 2840.5,959.833 2840.5,998.5C 2833.17,998.5 2825.83,998.5 2818.5,998.5C 2818.5,959.833 2818.5,921.167 2818.5,882.5C 2808.83,882.5 2799.17,882.5 2789.5,882.5C 2789.5,876.167 2789.5,869.833 2789.5,863.5 Z"/></g>
<g><path style="opacity:1" fill="#5d6062" d="M 3011.5,863.5 C 2987.5,863.5 2963.5,863.5 2939.5,863.5C 2939.5,908.5 2939.5,953.5 2939.5,998.5C 2938.5,953.336 2938.17,908.003 2938.5,862.5C 2963.01,862.169 2987.34,862.502 3011.5,863.5 Z"/></g>
<g><path style="opacity:1" fill="#141518" d="M 3011.5,863.5 C 3011.5,869.833 3011.5,876.167 3011.5,882.5C 2994.83,882.5 2978.17,882.5 2961.5,882.5C 2960.51,893.988 2960.17,905.655 2960.5,917.5C 2977.5,917.5 2994.5,917.5 3011.5,917.5C 3011.5,923.5 3011.5,929.5 3011.5,935.5C 2994.5,935.5 2977.5,935.5 2960.5,935.5C 2960.5,950.167 2960.5,964.833 2960.5,979.5C 2977.5,979.5 2994.5,979.5 3011.5,979.5C 3011.5,985.833 3011.5,992.167 3011.5,998.5C 2987.5,998.5 2963.5,998.5 2939.5,998.5C 2939.5,953.5 2939.5,908.5 2939.5,863.5C 2963.5,863.5 2987.5,863.5 3011.5,863.5 Z"/></g>
<g><path style="opacity:1" fill="#151619" d="M 3070.5,863.5 C 3097.17,863.5 3123.83,863.5 3150.5,863.5C 3150.5,869.833 3150.5,876.167 3150.5,882.5C 3140.83,882.5 3131.17,882.5 3121.5,882.5C 3121.5,921.167 3121.5,959.833 3121.5,998.5C 3114.17,998.5 3106.83,998.5 3099.5,998.5C 3099.5,959.833 3099.5,921.167 3099.5,882.5C 3089.83,882.5 3080.17,882.5 3070.5,882.5C 3070.5,876.167 3070.5,869.833 3070.5,863.5 Z"/></g>
<g><path style="opacity:1" fill="#16171a" d="M 3955.5,955.5 C 3955.78,956.289 3956.28,956.956 3957,957.5C 3957.5,927.168 3957.67,896.835 3957.5,866.5C 3964.5,866.5 3971.5,866.5 3978.5,866.5C 3978.5,912.167 3978.5,957.833 3978.5,1003.5C 3976.17,1003.5 3973.83,1003.5 3971.5,1003.5C 3944.02,972.572 3916.52,941.572 3889,910.5C 3888.5,940.832 3888.33,971.165 3888.5,1001.5C 3881.17,1001.5 3873.83,1001.5 3866.5,1001.5C 3866.5,955.5 3866.5,909.5 3866.5,863.5C 3869.19,863.336 3871.85,863.503 3874.5,864C 3901.74,894.397 3928.74,924.897 3955.5,955.5 Z"/></g>
<g><path style="opacity:1" fill="#616365" d="M 4163.5,865.5 C 4155.32,865.174 4147.32,865.508 4139.5,866.5C 4138.96,866.44 4138.62,866.107 4138.5,865.5C 4146.99,864.179 4155.32,864.179 4163.5,865.5 Z"/></g>
<g><path style="opacity:1" fill="#626567" d="M 4240.5,865.5 C 4248.68,864.179 4257.01,864.179 4265.5,865.5C 4265.38,866.107 4265.04,866.44 4264.5,866.5C 4256.68,865.508 4248.68,865.174 4240.5,865.5 Z"/></g>
<g><path style="opacity:1" fill="#151618" d="M 3680.5,865.5 C 3687.5,865.5 3694.5,865.5 3701.5,865.5C 3701.17,893.338 3701.5,921.005 3702.5,948.5C 3704.81,974.169 3718.81,985.335 3744.5,982C 3759.5,977.849 3767.83,968.015 3769.5,952.5C 3770.5,923.671 3770.83,894.671 3770.5,865.5C 3777.5,865.5 3784.5,865.5 3791.5,865.5C 3791.5,872.833 3791.5,880.167 3791.5,887.5C 3791.67,909.169 3791.5,930.836 3791,952.5C 3788.65,979.182 3774.48,995.682 3748.5,1002C 3715.04,1007.37 3692.87,994.2 3682,962.5C 3680.57,930.193 3680.07,897.86 3680.5,865.5 Z"/></g>
<g><path style="opacity:1" fill="#8b8d90" d="M 3791.5,887.5 C 3791.5,880.167 3791.5,872.833 3791.5,865.5C 3784.5,865.5 3777.5,865.5 3770.5,865.5C 3770.83,894.671 3770.5,923.671 3769.5,952.5C 3769.5,923.167 3769.5,893.833 3769.5,864.5C 3777.17,864.5 3784.83,864.5 3792.5,864.5C 3792.83,872.352 3792.49,880.018 3791.5,887.5 Z"/></g>
<g><path style="opacity:1" fill="#161719" d="M 4163.5,865.5 C 4176.03,896.597 4188.87,927.597 4202,958.5C 4214.85,927.474 4227.68,896.474 4240.5,865.5C 4248.68,865.174 4256.68,865.508 4264.5,866.5C 4244.97,911.764 4225.64,957.097 4206.5,1002.5C 4202.97,1003.01 4199.8,1002.34 4197,1000.5C 4177.55,955.928 4158.38,911.261 4139.5,866.5C 4147.32,865.508 4155.32,865.174 4163.5,865.5 Z"/></g>
<g><path style="opacity:1" fill="#7e8083" d="M 5076.5,866.5 C 5084.32,865.508 5092.32,865.174 5100.5,865.5C 5100.5,866.167 5100.5,866.833 5100.5,867.5C 5100.17,867.5 5099.83,867.5 5099.5,867.5C 5092.02,866.508 5084.35,866.175 5076.5,866.5 Z"/></g>
<g><path style="opacity:1" fill="#141518" d="M 4055.5,866.5 C 4062.5,866.5 4069.5,866.5 4076.5,866.5C 4076.5,911.5 4076.5,956.5 4076.5,1001.5C 4069.5,1001.5 4062.5,1001.5 4055.5,1001.5C 4055.5,956.5 4055.5,911.5 4055.5,866.5 Z"/></g>
<g><path style="opacity:1" fill="#353739" d="M 4055.5,866.5 C 4062.65,865.508 4069.98,865.175 4077.5,865.5C 4077.83,911.003 4077.5,956.336 4076.5,1001.5C 4076.5,956.5 4076.5,911.5 4076.5,866.5C 4069.5,866.5 4062.5,866.5 4055.5,866.5 Z"/></g>
<g><path style="opacity:1" fill="#3f4144" d="M 4397.5,866.5 C 4373.5,866.5 4349.5,866.5 4325.5,866.5C 4325.5,911.5 4325.5,956.5 4325.5,1001.5C 4324.5,956.336 4324.17,911.003 4324.5,865.5C 4349.01,865.169 4373.34,865.502 4397.5,866.5 Z"/></g>
<g><path style="opacity:1" fill="#141518" d="M 4397.5,866.5 C 4397.5,872.833 4397.5,879.167 4397.5,885.5C 4380.5,885.5 4363.5,885.5 4346.5,885.5C 4346.5,897.167 4346.5,908.833 4346.5,920.5C 4363.5,920.5 4380.5,920.5 4397.5,920.5C 4397.5,926.833 4397.5,933.167 4397.5,939.5C 4380.5,939.5 4363.5,939.5 4346.5,939.5C 4346.5,953.833 4346.5,968.167 4346.5,982.5C 4363.5,982.5 4380.5,982.5 4397.5,982.5C 4397.5,988.833 4397.5,995.167 4397.5,1001.5C 4373.5,1001.5 4349.5,1001.5 4325.5,1001.5C 4325.5,956.5 4325.5,911.5 4325.5,866.5C 4349.5,866.5 4373.5,866.5 4397.5,866.5 Z"/></g>
<g><path style="opacity:1" fill="#151619" d="M 4471.5,866.5 C 4493.21,866.056 4514.88,866.556 4536.5,868C 4564.39,878.633 4573.23,898.133 4563,926.5C 4558.38,935.785 4551.21,942.285 4541.5,946C 4554.45,964.613 4567.78,982.947 4581.5,1001C 4573.17,1001.67 4564.83,1001.67 4556.5,1001C 4543.45,984.282 4530.78,967.282 4518.5,950C 4510.17,949.5 4501.84,949.334 4493.5,949.5C 4493.5,966.833 4493.5,984.167 4493.5,1001.5C 4486.17,1001.5 4478.83,1001.5 4471.5,1001.5C 4471.5,956.5 4471.5,911.5 4471.5,866.5 Z"/></g>
<g><path style="opacity:1" fill="#17181b" d="M 4785.5,866.5 C 4792.83,866.5 4800.17,866.5 4807.5,866.5C 4807.5,911.5 4807.5,956.5 4807.5,1001.5C 4800.17,1001.5 4792.83,1001.5 4785.5,1001.5C 4785.5,956.5 4785.5,911.5 4785.5,866.5 Z"/></g>
<g><path style="opacity:1" fill="#151619" d="M 4947.5,885.5 C 4937.5,885.5 4927.5,885.5 4917.5,885.5C 4917.5,924.167 4917.5,962.833 4917.5,1001.5C 4910.17,1001.5 4902.83,1001.5 4895.5,1001.5C 4895.5,962.833 4895.5,924.167 4895.5,885.5C 4885.83,885.5 4876.17,885.5 4866.5,885.5C 4866.5,879.167 4866.5,872.833 4866.5,866.5C 4893.5,866.5 4920.5,866.5 4947.5,866.5C 4947.5,872.833 4947.5,879.167 4947.5,885.5 Z"/></g>
<g><path style="opacity:1" fill="#16171a" d="M 5076.5,866.5 C 5084.35,866.175 5092.02,866.508 5099.5,867.5C 5084.35,893.806 5069.18,920.139 5054,946.5C 5053.5,964.83 5053.33,983.164 5053.5,1001.5C 5046.17,1001.5 5038.83,1001.5 5031.5,1001.5C 5031.67,982.83 5031.5,964.164 5031,945.5C 5015.96,919.252 5000.79,893.085 4985.5,867C 4993.5,866.333 5001.5,866.333 5009.5,867C 5020.54,886.249 5031.71,905.415 5043,924.5C 5053.94,904.94 5065.11,885.607 5076.5,866.5 Z"/></g>
<g><path style="opacity:1" fill="#7c7d80" d="M 3957.5,866.5 C 3957.67,896.835 3957.5,927.168 3957,957.5C 3956.28,956.956 3955.78,956.289 3955.5,955.5C 3956.17,925.833 3956.83,896.167 3957.5,866.5 Z"/></g>
<g><path style="opacity:1" fill="#45474a" d="M 3680.5,865.5 C 3687.65,864.508 3694.98,864.175 3702.5,864.5C 3702.5,892.5 3702.5,920.5 3702.5,948.5C 3701.5,921.005 3701.17,893.338 3701.5,865.5C 3694.5,865.5 3687.5,865.5 3680.5,865.5 Z"/></g>
<g><path style="opacity:1" fill="#8a8c8e" d="M 3978.5,866.5 C 3979.5,912.33 3979.83,958.33 3979.5,1004.5C 3976.61,1004.81 3973.95,1004.47 3971.5,1003.5C 3973.83,1003.5 3976.17,1003.5 3978.5,1003.5C 3978.5,957.833 3978.5,912.167 3978.5,866.5 Z"/></g>
<g><path style="opacity:1" fill="#fffefe" d="M -0.5,868.5 C 5.13373,927.609 34.8004,969.775 88.5,995C 151.165,1016.97 206.165,1004.8 253.5,958.5C 309.745,992.778 365.411,1027.78 420.5,1063.5C 413.154,1095.31 415.654,1126.31 428,1156.5C 453.656,1209.67 495.823,1239 554.5,1244.5C 369.5,1244.5 184.5,1244.5 -0.5,1244.5C -0.5,1119.17 -0.5,993.833 -0.5,868.5 Z"/></g>
<g><path style="opacity:1" fill="#fcfcfc" d="M 2316.5,878.5 C 2323.17,878.334 2329.84,878.5 2336.5,879C 2352.36,883.876 2357.86,894.376 2353,910.5C 2349.91,917.256 2344.74,921.423 2337.5,923C 2330.51,923.5 2323.51,923.666 2316.5,923.5C 2316.5,908.5 2316.5,893.5 2316.5,878.5 Z"/></g>
<g><path style="opacity:1" fill="#fcfcfc" d="M 2019.5,881.5 C 2034.98,886.066 2039.14,895.733 2032,910.5C 2024.95,916.473 2016.78,918.806 2007.5,917.5C 2007.5,905.5 2007.5,893.5 2007.5,881.5C 2011.5,881.5 2015.5,881.5 2019.5,881.5 Z"/></g>
<g><path style="opacity:1" fill="#545659" d="M 2019.5,881.5 C 2015.5,881.5 2011.5,881.5 2007.5,881.5C 2007.5,893.5 2007.5,905.5 2007.5,917.5C 2006.5,905.345 2006.17,893.011 2006.5,880.5C 2011.03,880.182 2015.37,880.515 2019.5,881.5 Z"/></g>
<g><path style="opacity:1" fill="#fefefe" d="M 4493.5,885.5 C 4504.51,885.333 4515.51,885.5 4526.5,886C 4542.38,890.913 4547.88,901.413 4543,917.5C 4540.75,922.712 4536.92,926.212 4531.5,928C 4518.89,929.42 4506.23,929.92 4493.5,929.5C 4493.5,914.833 4493.5,900.167 4493.5,885.5 Z"/></g>
<g><path style="opacity:1" fill="#d7d7d8" d="M 4947.5,885.5 C 4938.01,886.494 4928.35,886.827 4918.5,886.5C 4918.83,925.004 4918.5,963.337 4917.5,1001.5C 4917.5,962.833 4917.5,924.167 4917.5,885.5C 4927.5,885.5 4937.5,885.5 4947.5,885.5 Z"/></g>
<g><path style="opacity:1" fill="#3f4144" d="M 1880.5,906.5 C 1880.56,905.957 1880.89,905.624 1881.5,905.5C 1882.5,936.493 1882.83,967.493 1882.5,998.5C 1881.83,967.833 1881.17,937.167 1880.5,906.5 Z"/></g>
<g><path style="opacity:1" fill="#a1a2a5" d="M 2706.5,998.5 C 2705.83,968.167 2705.17,937.833 2704.5,907.5C 2704.78,906.711 2705.28,906.044 2706,905.5C 2706.5,936.498 2706.67,967.498 2706.5,998.5 Z"/></g>
<g><path style="opacity:1" fill="#949698" d="M 2961.5,882.5 C 2961.5,893.833 2961.5,905.167 2961.5,916.5C 2978.34,916.17 2995.01,916.503 3011.5,917.5C 2994.5,917.5 2977.5,917.5 2960.5,917.5C 2960.17,905.655 2960.51,893.988 2961.5,882.5 Z"/></g>
<g><path style="opacity:1" fill="#fdfdfd" d="M 2007.5,936.5 C 2015.51,936.334 2023.51,936.5 2031.5,937C 2042.34,939.005 2048.01,945.505 2048.5,956.5C 2047.81,970.882 2040.14,978.049 2025.5,978C 2019.51,978.499 2013.51,978.666 2007.5,978.5C 2007.5,964.5 2007.5,950.5 2007.5,936.5 Z"/></g>
<g><path style="opacity:1" fill="#828487" d="M 3011.5,935.5 C 2995.01,936.497 2978.34,936.83 2961.5,936.5C 2961.5,950.5 2961.5,964.5 2961.5,978.5C 2978.34,978.17 2995.01,978.503 3011.5,979.5C 2994.5,979.5 2977.5,979.5 2960.5,979.5C 2960.5,964.833 2960.5,950.167 2960.5,935.5C 2977.5,935.5 2994.5,935.5 3011.5,935.5 Z"/></g>
</svg>
